# xmcd CD database file
#
# Track frame offsets:
#	150
#	14303
#	29443
#	49407
#	70244
#	90532
#	106637
#	127276
#	145701
#	166688
#	176276
#	204010
#
# Disc length: 3050 seconds
#
# Revision: 0
# Processed by: cddbd v1.5.1PL0 Copyright (c) Steve Scherf et al.
# Submitted via: CdAid (MTCDDB.DLL V2003.12.21)
#
DISCID=950be80c
DTITLE=Desso Blues Gang - This Is For You !
DYEAR=2005
DGENRE=Blues
TTITLE0=Wake Up The Morning
TTITLE1=You Can't Judge A Book By The Cover
TTITLE2=My Blues
TTITLE3=Big Surprise
TTITLE4=This Train - Night Train To Memphis
TTITLE5=Algo Diferente
TTITLE6=My Own Crossroad
TTITLE7=The Wildcat Boogie
TTITLE8=The Blues For Monsieur
TTITLE9=One Way
TTITLE10=With My Boys
TTITLE11=Slappin' Harp
EXTD=This Is For You ! ID3G:   0 YEAR: 2005
EXTT0=Wake Up The Morning
EXTT1=You Can't Judge A Book By The Cover
EXTT2=My Blues
EXTT3=Big Surprise
EXTT4=This Train - Night Train To Memphis
EXTT5=Algo Diferente
EXTT6=My Own Crossroad
EXTT7=The Wildcat Boogie
EXTT8=The Blues For Monsieur
EXTT9=One Way
EXTT10=With My Boys
EXTT11=Slappin' Harp
PLAYORDER=
